<svg xmlns="http://www.w3.org/2000/svg" xmlns:xlink="http://www.w3.org/1999/xlink" width="500" zoomAndPan="magnify" viewBox="0 0 375 374.999991" height="500" preserveAspectRatio="xMidYMid meet" version="1.0"><defs><g/><clipPath id="0852802e4d"><path d="M 137.277344 78.96875 L 237.777344 78.96875 L 237.777344 187.671875 L 137.277344 187.671875 Z M 137.277344 78.96875 " clip-rule="nonzero"/></clipPath></defs><rect x="-37.5" width="450" fill="#ffffff" y="-37.499999" height="449.999989" fill-opacity="1"/><rect x="-37.5" width="450" fill="#00100c" y="-37.499999" height="449.999989" fill-opacity="1"/><g fill="#1b8d73" fill-opacity="1"><g transform="translate(105.859665, 242.889048)"><g><path d="M 8.5 -6.0625 L 17.84375 -6.0625 C 18.039062 -6.0625 18.210938 -5.988281 18.359375 -5.84375 C 18.503906 -5.707031 18.578125 -5.492188 18.578125 -5.203125 L 18.578125 -0.875 C 18.578125 -0.570312 18.503906 -0.347656 18.359375 -0.203125 C 18.210938 -0.0664062 18.039062 0 17.84375 0 L 2.671875 0 C 2.097656 0 1.8125 -0.316406 1.8125 -0.953125 L 1.8125 -33.859375 C 1.8125 -34.503906 2.097656 -34.828125 2.671875 -34.828125 L 17.71875 -34.828125 C 18.1875 -34.828125 18.421875 -34.519531 18.421875 -33.90625 L 18.421875 -29.625 C 18.421875 -29.019531 18.1875 -28.71875 17.71875 -28.71875 L 8.5 -28.71875 L 8.5 -20.640625 L 15.859375 -20.640625 C 16.078125 -20.640625 16.265625 -20.570312 16.421875 -20.4375 C 16.578125 -20.300781 16.65625 -20.078125 16.65625 -19.765625 L 16.65625 -15.453125 C 16.65625 -15.148438 16.578125 -14.929688 16.421875 -14.796875 C 16.273438 -14.660156 16.085938 -14.59375 15.859375 -14.59375 L 8.5 -14.59375 Z M 8.5 -6.0625 "/></g></g></g><g fill="#1b8d73" fill-opacity="1"><g transform="translate(123.722162, 242.889048)"><g><path d="M 19.5625 -26.5 L 19.5625 -24.0625 C 19.5625 -23.675781 19.507812 -23.394531 19.40625 -23.21875 C 19.300781 -23.039062 19.082031 -22.953125 18.75 -22.953125 L 14.0625 -22.953125 C 13.757812 -22.953125 13.554688 -23.03125 13.453125 -23.1875 C 13.347656 -23.351562 13.296875 -23.613281 13.296875 -23.96875 L 13.296875 -26.296875 C 13.296875 -26.804688 13.191406 -27.289062 12.984375 -27.75 C 12.785156 -28.207031 12.492188 -28.582031 12.109375 -28.875 C 11.722656 -29.175781 11.253906 -29.328125 10.703125 -29.328125 C 9.878906 -29.328125 9.210938 -29.023438 8.703125 -28.421875 C 8.203125 -27.828125 7.953125 -27.140625 7.953125 -26.359375 L 7.953125 -8.5625 C 7.953125 -8.039062 8.0625 -7.546875 8.28125 -7.078125 C 8.5 -6.609375 8.8125 -6.226562 9.21875 -5.9375 C 9.632812 -5.65625 10.128906 -5.515625 10.703125 -5.515625 C 11.617188 -5.515625 12.300781 -5.820312 12.75 -6.4375 C 13.195312 -7.0625 13.421875 -7.769531 13.421875 -8.5625 L 13.421875 -11.546875 C 13.421875 -11.929688 13.472656 -12.191406 13.578125 -12.328125 C 13.691406 -12.460938 13.890625 -12.53125 14.171875 -12.53125 L 18.875 -12.53125 C 19.164062 -12.53125 19.375 -12.472656 19.5 -12.359375 C 19.632812 -12.242188 19.703125 -11.992188 19.703125 -11.609375 L 19.703125 -8.1875 C 19.703125 -6.375 19.296875 -4.8125 18.484375 -3.5 C 17.671875 -2.1875 16.578125 -1.179688 15.203125 -0.484375 C 13.835938 0.203125 12.316406 0.546875 10.640625 0.546875 C 9.390625 0.546875 8.195312 0.351562 7.0625 -0.03125 C 5.925781 -0.425781 4.921875 -1 4.046875 -1.75 C 3.179688 -2.507812 2.5 -3.429688 2 -4.515625 C 1.507812 -5.597656 1.265625 -6.820312 1.265625 -8.1875 L 1.265625 -26.625 C 1.265625 -27.863281 1.492188 -29.015625 1.953125 -30.078125 C 2.410156 -31.148438 3.054688 -32.078125 3.890625 -32.859375 C 4.734375 -33.648438 5.722656 -34.265625 6.859375 -34.703125 C 8.003906 -35.140625 9.265625 -35.359375 10.640625 -35.359375 C 12.171875 -35.359375 13.5 -35.109375 14.625 -34.609375 C 15.75 -34.109375 16.675781 -33.4375 17.40625 -32.59375 C 18.132812 -31.75 18.675781 -30.800781 19.03125 -29.75 C 19.382812 -28.695312 19.5625 -27.613281 19.5625 -26.5 Z M 19.5625 -26.5 "/></g></g></g><g fill="#1b8d73" fill-opacity="1"><g transform="translate(143.094607, 242.889048)"><g><path d="M 20.0625 -26.625 L 20.0625 -8.1875 C 20.0625 -6.820312 19.804688 -5.597656 19.296875 -4.515625 C 18.796875 -3.429688 18.109375 -2.507812 17.234375 -1.75 C 16.367188 -1 15.363281 -0.425781 14.21875 -0.03125 C 13.082031 0.351562 11.882812 0.546875 10.625 0.546875 C 9.363281 0.546875 8.171875 0.34375 7.046875 -0.0625 C 5.921875 -0.46875 4.921875 -1.046875 4.046875 -1.796875 C 3.179688 -2.554688 2.5 -3.476562 2 -4.5625 C 1.507812 -5.644531 1.265625 -6.851562 1.265625 -8.1875 L 1.265625 -26.625 C 1.265625 -27.988281 1.507812 -29.210938 2 -30.296875 C 2.5 -31.378906 3.179688 -32.296875 4.046875 -33.046875 C 4.921875 -33.804688 5.921875 -34.378906 7.046875 -34.765625 C 8.171875 -35.160156 9.363281 -35.359375 10.625 -35.359375 C 11.882812 -35.359375 13.082031 -35.160156 14.21875 -34.765625 C 15.363281 -34.378906 16.367188 -33.804688 17.234375 -33.046875 C 18.109375 -32.296875 18.796875 -31.378906 19.296875 -30.296875 C 19.804688 -29.222656 20.0625 -28 20.0625 -26.625 Z M 10.671875 -29.328125 C 9.816406 -29.328125 9.148438 -29.015625 8.671875 -28.390625 C 8.191406 -27.765625 7.953125 -27.050781 7.953125 -26.25 L 7.953125 -8.53125 C 7.953125 -7.738281 8.179688 -7.035156 8.640625 -6.421875 C 9.109375 -5.816406 9.769531 -5.515625 10.625 -5.515625 C 11.5 -5.515625 12.171875 -5.796875 12.640625 -6.359375 C 13.117188 -6.921875 13.359375 -7.59375 13.359375 -8.375 L 13.359375 -26.25 C 13.359375 -27.050781 13.117188 -27.765625 12.640625 -28.390625 C 12.171875 -29.015625 11.515625 -29.328125 10.671875 -29.328125 Z M 10.671875 -29.328125 "/></g></g></g><g fill="#1b8d73" fill-opacity="1"><g transform="translate(163.121362, 242.889048)"><g><path d="M 13.921875 -17.6875 L 13.921875 -25.671875 C 13.921875 -26.578125 13.65625 -27.3125 13.125 -27.875 C 12.59375 -28.4375 11.894531 -28.71875 11.03125 -28.71875 L 8.5 -28.71875 L 8.5 -14.703125 L 11.046875 -14.703125 C 11.921875 -14.703125 12.617188 -14.984375 13.140625 -15.546875 C 13.660156 -16.117188 13.921875 -16.832031 13.921875 -17.6875 Z M 1.8125 -0.953125 L 1.8125 -33.859375 C 1.8125 -34.503906 2.097656 -34.828125 2.671875 -34.828125 L 11.546875 -34.828125 C 12.835938 -34.828125 14.035156 -34.597656 15.140625 -34.140625 C 16.253906 -33.679688 17.222656 -33.039062 18.046875 -32.21875 C 18.867188 -31.394531 19.503906 -30.429688 19.953125 -29.328125 C 20.410156 -28.234375 20.640625 -27.054688 20.640625 -25.796875 L 20.640625 -17.75 C 20.640625 -16.488281 20.410156 -15.300781 19.953125 -14.1875 C 19.503906 -13.082031 18.867188 -12.113281 18.046875 -11.28125 C 17.222656 -10.457031 16.253906 -9.8125 15.140625 -9.34375 C 14.035156 -8.875 12.835938 -8.640625 11.546875 -8.640625 L 8.5 -8.640625 L 8.5 -0.953125 C 8.5 -0.316406 8.222656 0 7.671875 0 L 2.671875 0 C 2.097656 0 1.8125 -0.316406 1.8125 -0.953125 Z M 1.8125 -0.953125 "/></g></g></g><g fill="#1b8d73" fill-opacity="1"><g transform="translate(183.047454, 242.889048)"><g><path d="M 20.0625 -26.625 L 20.0625 -8.1875 C 20.0625 -6.820312 19.804688 -5.597656 19.296875 -4.515625 C 18.796875 -3.429688 18.109375 -2.507812 17.234375 -1.75 C 16.367188 -1 15.363281 -0.425781 14.21875 -0.03125 C 13.082031 0.351562 11.882812 0.546875 10.625 0.546875 C 9.363281 0.546875 8.171875 0.34375 7.046875 -0.0625 C 5.921875 -0.46875 4.921875 -1.046875 4.046875 -1.796875 C 3.179688 -2.554688 2.5 -3.476562 2 -4.5625 C 1.507812 -5.644531 1.265625 -6.851562 1.265625 -8.1875 L 1.265625 -26.625 C 1.265625 -27.988281 1.507812 -29.210938 2 -30.296875 C 2.5 -31.378906 3.179688 -32.296875 4.046875 -33.046875 C 4.921875 -33.804688 5.921875 -34.378906 7.046875 -34.765625 C 8.171875 -35.160156 9.363281 -35.359375 10.625 -35.359375 C 11.882812 -35.359375 13.082031 -35.160156 14.21875 -34.765625 C 15.363281 -34.378906 16.367188 -33.804688 17.234375 -33.046875 C 18.109375 -32.296875 18.796875 -31.378906 19.296875 -30.296875 C 19.804688 -29.222656 20.0625 -28 20.0625 -26.625 Z M 10.671875 -29.328125 C 9.816406 -29.328125 9.148438 -29.015625 8.671875 -28.390625 C 8.191406 -27.765625 7.953125 -27.050781 7.953125 -26.25 L 7.953125 -8.53125 C 7.953125 -7.738281 8.179688 -7.035156 8.640625 -6.421875 C 9.109375 -5.816406 9.769531 -5.515625 10.625 -5.515625 C 11.5 -5.515625 12.171875 -5.796875 12.640625 -6.359375 C 13.117188 -6.921875 13.359375 -7.59375 13.359375 -8.375 L 13.359375 -26.25 C 13.359375 -27.050781 13.117188 -27.765625 12.640625 -28.390625 C 12.171875 -29.015625 11.515625 -29.328125 10.671875 -29.328125 Z M 10.671875 -29.328125 "/></g></g></g><g fill="#1b8d73" fill-opacity="1"><g transform="translate(203.07421, 242.889048)"><g><path d="M 8.5 -33.859375 L 8.5 -0.953125 C 8.5 -0.316406 8.222656 0 7.671875 0 L 2.640625 0 C 2.085938 0 1.8125 -0.316406 1.8125 -0.953125 L 1.8125 -33.859375 C 1.8125 -34.503906 2.085938 -34.828125 2.640625 -34.828125 L 7.671875 -34.828125 C 8.222656 -34.828125 8.5 -34.503906 8.5 -33.859375 Z M 8.5 -33.859375 "/></g></g></g><g fill="#1b8d73" fill-opacity="1"><g transform="translate(212.128679, 242.889048)"><g><path d="M 19.578125 0 L 14.46875 0 C 14.21875 0 14.019531 -0.0976562 13.875 -0.296875 C 13.738281 -0.503906 13.671875 -0.738281 13.671875 -1 L 13.671875 -26.28125 C 13.671875 -27.0625 13.429688 -27.757812 12.953125 -28.375 C 12.484375 -28.988281 11.832031 -29.296875 11 -29.296875 C 10.144531 -29.296875 9.484375 -28.988281 9.015625 -28.375 C 8.546875 -27.757812 8.3125 -27.0625 8.3125 -26.28125 L 8.3125 -0.984375 C 8.3125 -0.710938 8.253906 -0.476562 8.140625 -0.28125 C 8.035156 -0.09375 7.835938 0 7.546875 0 L 2.234375 0 C 2.054688 0 1.898438 -0.09375 1.765625 -0.28125 C 1.640625 -0.476562 1.578125 -0.710938 1.578125 -0.984375 L 1.578125 -26.65625 C 1.578125 -27.863281 1.828125 -28.992188 2.328125 -30.046875 C 2.835938 -31.109375 3.523438 -32.035156 4.390625 -32.828125 C 5.253906 -33.628906 6.253906 -34.253906 7.390625 -34.703125 C 8.523438 -35.160156 9.71875 -35.390625 10.96875 -35.390625 C 12.226562 -35.390625 13.425781 -35.160156 14.5625 -34.703125 C 15.695312 -34.253906 16.695312 -33.628906 17.5625 -32.828125 C 18.4375 -32.035156 19.125 -31.109375 19.625 -30.046875 C 20.132812 -28.992188 20.390625 -27.863281 20.390625 -26.65625 L 20.390625 -1 C 20.390625 -0.75 20.328125 -0.519531 20.203125 -0.3125 C 20.078125 -0.101562 19.867188 0 19.578125 0 Z M 19.578125 0 "/></g></g></g><g fill="#1b8d73" fill-opacity="1"><g transform="translate(232.809738, 242.889048)"><g><path d="M 16.78125 -28.71875 L 12.109375 -28.71875 L 12.109375 -0.875 C 12.109375 -0.59375 12.035156 -0.375 11.890625 -0.21875 C 11.742188 -0.0703125 11.570312 0 11.375 0 L 6.109375 0 C 5.890625 0 5.710938 -0.0703125 5.578125 -0.21875 C 5.453125 -0.375 5.390625 -0.59375 5.390625 -0.875 L 5.390625 -28.71875 L 0.703125 -28.71875 C 0.484375 -28.71875 0.304688 -28.789062 0.171875 -28.9375 C 0.0351562 -29.09375 -0.03125 -29.320312 -0.03125 -29.625 L -0.03125 -33.90625 C -0.03125 -34.207031 0.0351562 -34.4375 0.171875 -34.59375 C 0.304688 -34.75 0.484375 -34.828125 0.703125 -34.828125 L 16.78125 -34.828125 C 17 -34.828125 17.175781 -34.75 17.3125 -34.59375 C 17.445312 -34.445312 17.515625 -34.222656 17.515625 -33.921875 L 17.515625 -29.625 C 17.515625 -29.320312 17.445312 -29.09375 17.3125 -28.9375 C 17.175781 -28.789062 17 -28.71875 16.78125 -28.71875 Z M 16.78125 -28.71875 "/></g></g></g><g fill="#1b8d73" fill-opacity="1"><g transform="translate(248.986121, 242.889048)"><g><path d="M 12.65625 -24.734375 L 12.65625 -26.15625 C 12.65625 -27.019531 12.425781 -27.765625 11.96875 -28.390625 C 11.519531 -29.015625 10.84375 -29.328125 9.9375 -29.328125 C 9.519531 -29.328125 9.097656 -29.21875 8.671875 -29 C 8.253906 -28.789062 7.90625 -28.457031 7.625 -28 C 7.351562 -27.539062 7.21875 -26.925781 7.21875 -26.15625 C 7.21875 -25.363281 7.375 -24.6875 7.6875 -24.125 C 8 -23.5625 8.4375 -23.035156 9 -22.546875 C 9.5625 -22.066406 10.210938 -21.53125 10.953125 -20.9375 C 12.117188 -20.03125 13.210938 -19.148438 14.234375 -18.296875 C 15.265625 -17.441406 16.164062 -16.535156 16.9375 -15.578125 C 17.707031 -14.617188 18.3125 -13.546875 18.75 -12.359375 C 19.1875 -11.171875 19.40625 -9.78125 19.40625 -8.1875 C 19.40625 -7.007812 19.179688 -5.894531 18.734375 -4.84375 C 18.296875 -3.789062 17.664062 -2.859375 16.84375 -2.046875 C 16.03125 -1.234375 15.050781 -0.597656 13.90625 -0.140625 C 12.769531 0.316406 11.507812 0.546875 10.125 0.546875 C 8.613281 0.546875 7.285156 0.300781 6.140625 -0.1875 C 5.003906 -0.6875 4.050781 -1.351562 3.28125 -2.1875 C 2.519531 -3.03125 1.945312 -3.992188 1.5625 -5.078125 C 1.1875 -6.171875 1 -7.304688 1 -8.484375 L 1 -9.8125 C 1 -10.25 1.050781 -10.5625 1.15625 -10.75 C 1.269531 -10.9375 1.503906 -11.03125 1.859375 -11.03125 L 6.4375 -11.03125 C 6.789062 -11.03125 7.019531 -10.953125 7.125 -10.796875 C 7.238281 -10.648438 7.296875 -10.382812 7.296875 -10 L 7.296875 -8.859375 C 7.296875 -8.015625 7.445312 -7.347656 7.75 -6.859375 C 8.050781 -6.378906 8.425781 -6.035156 8.875 -5.828125 C 9.320312 -5.628906 9.753906 -5.53125 10.171875 -5.53125 C 10.953125 -5.53125 11.625 -5.796875 12.1875 -6.328125 C 12.75 -6.867188 13.03125 -7.601562 13.03125 -8.53125 C 13.03125 -9.351562 12.878906 -10.0625 12.578125 -10.65625 C 12.273438 -11.25 11.800781 -11.847656 11.15625 -12.453125 C 10.507812 -13.054688 9.671875 -13.78125 8.640625 -14.625 C 7.328125 -15.695312 6.1875 -16.644531 5.21875 -17.46875 C 4.257812 -18.289062 3.46875 -19.109375 2.84375 -19.921875 C 2.21875 -20.734375 1.753906 -21.640625 1.453125 -22.640625 C 1.148438 -23.648438 1 -24.878906 1 -26.328125 C 1 -27.640625 1.191406 -28.789062 1.578125 -29.78125 C 1.972656 -30.78125 2.492188 -31.632812 3.140625 -32.34375 C 3.785156 -33.050781 4.5 -33.625 5.28125 -34.0625 C 6.070312 -34.507812 6.867188 -34.835938 7.671875 -35.046875 C 8.484375 -35.253906 9.238281 -35.359375 9.9375 -35.359375 C 11.6875 -35.359375 13.234375 -34.976562 14.578125 -34.21875 C 15.921875 -33.46875 16.972656 -32.40625 17.734375 -31.03125 C 18.492188 -29.65625 18.875 -28.035156 18.875 -26.171875 L 18.875 -24.734375 C 18.875 -24.390625 18.8125 -24.144531 18.6875 -24 C 18.5625 -23.851562 18.296875 -23.78125 17.890625 -23.78125 L 13.390625 -23.78125 C 13.066406 -23.78125 12.863281 -23.851562 12.78125 -24 C 12.695312 -24.144531 12.65625 -24.390625 12.65625 -24.734375 Z M 12.65625 -24.734375 "/></g></g></g><g clip-path="url(#0852802e4d)"><path fill="#d4ee04" d="M 201.175781 119.078125 L 203.230469 121.546875 L 165.042969 153.21875 L 207.464844 127.6875 L 209.710938 130.460938 L 214.167969 118.941406 Z M 192.261719 187.539062 L 183.792969 187.539062 L 183.792969 146.328125 L 192.261719 146.328125 Z M 153.667969 115.039062 L 160.261719 179.25 L 167.027344 179.25 L 167.027344 155.792969 L 175.496094 155.792969 L 175.496094 187.539062 L 152.796875 187.539062 L 152.414062 183.8125 L 145.351562 115.039062 L 143.457031 115.039062 C 140.066406 115.039062 137.289062 112.261719 137.289062 108.867188 L 137.289062 97.832031 C 137.289062 94.4375 140.066406 91.660156 143.457031 91.660156 L 147.984375 91.660156 L 148.636719 82.355469 C 148.765625 80.472656 150.183594 78.921875 152.070312 78.921875 L 222.9375 78.921875 C 224.828125 78.921875 226.242188 80.472656 226.375 82.355469 L 227.027344 91.660156 L 231.550781 91.660156 C 234.945312 91.660156 237.71875 94.4375 237.71875 97.832031 L 237.71875 108.867188 C 237.71875 112.261719 234.945312 115.039062 231.550781 115.039062 L 230.054688 115.039062 L 222.777344 183.816406 L 222.386719 187.542969 L 200.734375 187.542969 L 200.734375 136.53125 L 209.203125 136.53125 L 209.203125 179.25 L 214.945312 179.25 L 221.734375 115.039062 Z M 153.667969 115.039062 " fill-opacity="1" fill-rule="nonzero"/></g></svg>